<svg width="117" height="41" viewBox="0 0 117 41" fill="none" xmlns="http://www.w3.org/2000/svg">
<path fill-rule="evenodd" clip-rule="evenodd" d="M41.0632 20.5099C41.0632 9.19355 31.8709 0.0198212 20.5316 0.0198212C19.8229 0.0198212 19.1226 0.055656 18.4323 0.125609C8.07917 1.17491 0 9.90082 0 20.5099C0 31.8263 9.1923 41 20.5316 41C31.8709 41 41.0632 31.8263 41.0632 20.5099ZM16.0409 20.8301H17.9654C17.9665 21.3623 17.97 21.8895 17.976 22.4111C17.3277 22.401 16.689 22.3872 16.0613 22.3697C16.0498 21.8618 16.0429 21.3484 16.0409 20.8301ZM18.6071 20.8301C18.6081 21.3653 18.6117 21.8955 18.6178 22.4198C19.1432 22.4259 19.6744 22.4295 20.2108 22.4305V20.8301H18.6071ZM16.0784 23.0108C16.7036 23.028 17.3395 23.0417 17.9847 23.0517C17.9947 23.6955 18.0084 24.3301 18.0257 24.954C17.3934 24.9347 16.7704 24.9081 16.158 24.8747C16.1245 24.2635 16.0978 23.6418 16.0784 23.0108ZM18.6265 23.0603C18.6366 23.7073 18.6505 24.3447 18.668 24.9711C19.1769 24.9826 19.6914 24.9895 20.2108 24.9915V23.0709C19.6775 23.0698 19.1492 23.0663 18.6265 23.0603ZM16.196 25.518C16.8027 25.5505 17.4194 25.5764 18.0448 25.5952C18.0655 26.2431 18.0901 26.8787 18.1184 27.5002C17.5166 27.4736 16.9232 27.437 16.3395 27.3911C16.2844 26.7802 16.2364 26.1553 16.196 25.518ZM18.6873 25.612C18.7083 26.263 18.7332 26.9012 18.7618 27.5249C19.24 27.5404 19.7232 27.5496 20.2108 27.5524V25.6318C19.6982 25.6299 19.1901 25.6232 18.6873 25.612ZM16.401 28.0381C16.9753 28.082 17.5584 28.117 18.1491 28.1425C18.182 28.7962 18.219 29.4333 18.2598 30.0517C17.7053 30.0207 17.1579 29.9786 16.6186 29.9258C16.5383 29.3147 16.4656 28.6848 16.401 28.0381ZM18.7927 28.1665C18.8261 28.8231 18.8635 29.4624 18.9049 30.0825C19.3363 30.0996 19.7717 30.11 20.2108 30.1134V28.1928C19.734 28.19 19.2611 28.1812 18.7927 28.1665ZM16.708 30.5776C17.2333 30.627 17.7656 30.6664 18.3042 30.6954C18.3518 31.3578 18.4039 31.997 18.4602 32.6103C17.974 32.5793 17.4931 32.5375 17.0182 32.4854C16.9063 31.8752 16.8027 31.2384 16.708 30.5776ZM18.9496 30.725C18.9979 31.3901 19.0507 32.031 19.1078 32.645C19.4727 32.6609 19.8405 32.6707 20.2108 32.6743V30.7537C19.7871 30.7505 19.3666 30.7408 18.9496 30.725ZM17.144 33.1427C17.5985 33.1898 18.058 33.2275 18.522 33.2556C18.5894 33.9326 18.6621 34.5747 18.7396 35.1781C18.3509 35.1523 17.9656 35.1183 17.5838 35.0762C17.5639 34.9993 17.5442 34.9216 17.5245 34.8433C17.39 34.3064 17.263 33.7386 17.144 33.1427ZM19.3535 34.9192C19.3659 35.0183 19.3784 35.1164 19.3911 35.2133C19.6629 35.2247 19.9361 35.2321 20.2108 35.2353V33.3147C19.8617 33.3113 19.5147 33.3026 19.1701 33.2885C19.2276 33.8585 19.2888 34.4028 19.3535 34.9192ZM17.764 35.739C18.1155 35.7745 18.4697 35.8033 18.8266 35.8252C18.9262 36.5327 19.0328 37.1792 19.1454 37.7573C18.905 37.7429 18.6658 37.7249 18.4279 37.7032C18.1958 37.1294 17.9733 36.4725 17.764 35.739ZM19.4792 35.8576C19.5819 36.5731 19.691 37.2186 19.8053 37.7872C19.9401 37.7913 20.0753 37.7944 20.2108 37.7962V35.8756C19.9659 35.8728 19.722 35.8668 19.4792 35.8576ZM18.7195 38.3699C18.9059 38.3841 19.093 38.3962 19.2808 38.406C19.4136 38.9991 19.5538 39.5007 19.6998 39.9C19.5093 39.7028 19.3033 39.4309 19.086 39.064C18.962 38.8547 18.8397 38.6231 18.7195 38.3699ZM17.0758 35.6607C17.2734 36.3791 17.485 37.0367 17.7089 37.6263C17.4645 37.5962 17.2217 37.5623 16.9804 37.5245C16.6276 36.9323 16.2907 36.2545 15.9748 35.4976C16.3382 35.5593 16.7053 35.6137 17.0758 35.6607ZM17.984 38.3021C17.8023 38.2824 17.6213 38.2607 17.4412 38.237C17.629 38.5033 17.8204 38.7463 18.0147 38.965C18.2291 39.2062 18.4434 39.4144 18.6572 39.5909C18.424 39.2255 18.1991 38.794 17.984 38.3021ZM15.2264 35.3595C15.5172 36.0957 15.8297 36.772 16.161 37.3809C15.8975 37.3296 15.636 37.2739 15.3768 37.2136C14.908 36.5929 14.4615 35.8851 14.0431 35.0943C14.4325 35.1913 14.8271 35.2798 15.2264 35.3595ZM16.5855 38.1079C16.3994 38.0763 16.2142 38.0424 16.03 38.0065C16.485 38.5106 16.9571 38.9373 17.4416 39.2831C17.1461 38.9381 16.8603 38.5451 16.5855 38.1079ZM13.2094 34.8714C13.5831 35.6303 13.9861 36.3314 14.4149 36.9673C14.1018 36.8795 13.7923 36.7852 13.4864 36.6845C12.962 36.0763 12.4655 35.3995 12.0019 34.6592C11.958 34.5892 11.9145 34.5186 11.8713 34.4475C12.3092 34.6002 12.7554 34.7417 13.2094 34.8714ZM15.0063 37.7821C14.7921 37.7299 14.5792 37.6748 14.3678 37.6168C14.9174 38.1449 15.4918 38.6026 16.0864 38.9847C15.7133 38.6264 15.3527 38.2244 15.0063 37.7821ZM10.925 34.095C11.3573 34.8739 11.8262 35.5997 12.3274 36.2658C11.8942 36.0951 11.4694 35.9113 11.0537 35.715C10.7439 35.365 10.4445 34.9979 10.1564 34.6144C9.85894 34.2186 9.5738 33.8059 9.30187 33.3772C9.82672 33.6344 10.3683 33.874 10.925 34.095ZM13.1152 37.2334C12.8153 37.1319 12.5188 37.0244 12.226 36.9112C12.9751 37.5997 13.7718 38.196 14.607 38.6902C14.0879 38.258 13.5896 37.7708 13.1152 37.2334ZM8.21192 32.8047C8.64349 33.5691 9.11431 34.2921 9.6204 34.9683C8.86529 34.5365 8.14645 34.0612 7.46841 33.5467C6.95289 32.87 6.47662 32.1526 6.04386 31.399C6.72145 31.9041 7.4459 32.374 8.21192 32.8047ZM10.6566 36.2327C10.109 35.9698 9.57653 35.6858 9.06075 35.3818C10.2429 36.5783 11.5676 37.592 13.0001 38.3861C12.168 37.7641 11.3838 37.0422 10.6566 36.2327ZM4.777 30.3649C5.04038 30.9115 5.32498 31.4428 5.62955 31.9576C4.43068 30.7778 3.4149 29.4558 2.6192 28.0262C3.24247 28.8566 3.96582 29.6392 4.777 30.3649ZM6.39853 30.8642C6.01427 30.5766 5.64638 30.2778 5.29573 29.9686C5.09902 29.5538 4.91483 29.1299 4.74375 28.6975C5.41118 29.1977 6.13854 29.6656 6.91896 30.0971C7.14044 30.6527 7.38056 31.1931 7.63822 31.7169C7.2087 31.4455 6.79509 31.161 6.39853 30.8642ZM4.0971 28.7987C3.9836 28.5064 3.87593 28.2106 3.77424 27.9113C3.23576 27.4378 2.74757 26.9406 2.31451 26.4225C2.80963 27.2561 3.4072 28.0511 4.0971 28.7987ZM6.35361 29.0223C5.61188 28.5597 4.93367 28.0642 4.32424 27.5409C4.22335 27.2356 4.12884 26.9266 4.04089 26.6142C4.67807 27.0421 5.38055 27.4444 6.14097 27.8173C6.27099 28.2703 6.41274 28.7157 6.56573 29.1527C6.49449 29.1096 6.42378 29.0661 6.35361 29.0223ZM3.39008 26.6612C3.33194 26.4503 3.27671 26.2378 3.22445 26.024C2.7812 25.6783 2.37841 25.3185 2.0194 24.9461C2.40226 25.5395 2.86086 26.1128 3.39008 26.6612ZM5.91765 26.9852C5.1253 26.5677 4.41601 26.1221 3.79403 25.6543C3.73368 25.3955 3.67778 25.1346 3.62642 24.8717C4.23661 25.2023 4.91424 25.5141 5.65188 25.8044C5.73177 26.2029 5.82045 26.5966 5.91765 26.9852ZM2.9996 25.0024C2.96353 24.8185 2.92963 24.6337 2.89793 24.448C2.45982 24.1738 2.06606 23.8886 1.72037 23.5936C2.06684 24.0771 2.4944 24.5483 2.9996 25.0024ZM5.51349 25.0575C4.75513 24.7422 4.07595 24.406 3.48248 24.0539C3.4447 23.8131 3.41069 23.5708 3.38055 23.3269C3.97127 23.5503 4.63025 23.7615 5.35008 23.9587C5.39718 24.3284 5.45172 24.6948 5.51349 25.0575ZM2.76862 23.5941C2.74482 23.4143 2.72307 23.2337 2.70339 23.0524C2.21048 22.8377 1.77808 22.6132 1.41198 22.3805C1.5888 22.5939 1.7974 22.8078 2.03912 23.0217C2.25829 23.2156 2.50175 23.4066 2.76862 23.5941ZM5.2716 23.2719C4.53664 23.063 3.87845 22.841 3.30342 22.6093C3.28172 22.3719 3.26365 22.1332 3.24929 21.8933C3.82854 22.0056 4.47631 22.112 5.18523 22.2114C5.20723 22.5676 5.23608 22.9211 5.2716 23.2719ZM2.63546 22.3183C2.62119 22.1323 2.60911 21.9456 2.59924 21.7582C2.00493 21.6256 1.50236 21.4858 1.10225 21.34C1.29986 21.5302 1.57224 21.7357 1.93994 21.9526C2.14961 22.0763 2.38172 22.1983 2.63546 22.3183ZM5.15277 21.5601C4.43581 21.4577 3.78907 21.3487 3.21934 21.2347C3.21515 21.1002 3.21211 20.9653 3.21026 20.8301H5.13474C5.13755 21.0745 5.14358 21.3179 5.15277 21.5601ZM5.13474 20.1898H3.21026C3.21211 20.0545 3.21515 19.9196 3.21934 19.7851C3.78907 19.6711 4.43581 19.5621 5.15277 19.4597C5.14358 19.702 5.13755 19.9453 5.13474 20.1898ZM2.5686 20.1898C2.56979 20.1011 2.57147 20.0126 2.57365 19.9242C2.28862 19.9905 2.02877 20.0582 1.79532 20.127C1.724 20.148 1.65591 20.169 1.59099 20.1898H2.5686ZM5.18523 18.8084C4.47631 18.9078 3.82854 19.0142 3.24929 19.1266C3.26365 18.8866 3.28172 18.6479 3.30342 18.4105C3.87845 18.1788 4.53664 17.9568 5.2716 17.7479C5.23608 18.0987 5.20723 18.4522 5.18523 18.8084ZM2.59924 19.2616C2.60911 19.0742 2.62119 18.8875 2.63546 18.7015C2.38172 18.8215 2.14961 18.9435 1.93994 19.0672C1.57224 19.2841 1.29986 19.4897 1.10225 19.6798C1.50236 19.5341 2.00493 19.3942 2.59924 19.2616ZM5.35008 17.0612C4.63025 17.2583 3.97127 17.4695 3.38055 17.6929C3.41069 17.4491 3.4447 17.2067 3.48248 16.9659C4.07595 16.6139 4.75513 16.2776 5.51349 15.9623C5.45172 16.325 5.39718 16.6914 5.35008 17.0612ZM2.70339 17.9674C2.72307 17.7861 2.74482 17.6055 2.76862 17.4257C2.50175 17.6132 2.25829 17.8042 2.03912 17.9982C1.7974 18.212 1.5888 18.426 1.41198 18.6393C1.77808 18.4066 2.21048 18.1821 2.70339 17.9674ZM5.65188 15.2154C4.91424 15.5057 4.23661 15.8175 3.62642 16.1481C3.67778 15.8852 3.73368 15.6243 3.79403 15.3655C4.41601 14.8977 5.1253 14.4521 5.91765 14.0346C5.82045 14.4232 5.73177 14.8169 5.65188 15.2154ZM2.89793 16.5718C2.92963 16.3861 2.96353 16.2013 2.9996 16.0174C2.4944 16.4715 2.06684 16.9427 1.72037 17.4262C2.06606 17.1312 2.45982 16.846 2.89793 16.5718ZM6.14097 13.2025C5.38054 13.5755 4.67807 13.9777 4.04089 14.4056C4.12883 14.0932 4.22335 13.7842 4.32424 13.479C4.93367 12.9556 5.61188 12.4601 6.35361 11.9975C6.42378 11.9537 6.49449 11.9103 6.56572 11.8671C6.41273 12.3041 6.27098 12.7495 6.14097 13.2025ZM3.22445 14.9958C3.27671 14.782 3.33194 14.5695 3.39008 14.3586C2.86086 14.907 2.40226 15.4803 2.0194 16.0737C2.37841 15.7013 2.7812 15.3415 3.22445 14.9958ZM6.91896 10.9228C6.13854 11.3542 5.41118 11.8221 4.74375 12.3223C4.91483 11.8899 5.09902 11.466 5.29573 11.0512C5.64638 10.742 6.01427 10.4433 6.39853 10.1557C6.79509 9.85883 7.2087 9.57428 7.63821 9.30289C7.38055 9.82669 7.14043 10.3671 6.91896 10.9228ZM3.77423 13.1086C3.87592 12.8093 3.9836 12.5134 4.0971 12.2211C3.40719 12.9687 2.80963 13.7638 2.3145 14.5973C2.74756 14.0793 3.23576 13.582 3.77423 13.1086ZM8.21191 8.21514C7.4459 8.64584 6.72144 9.11571 6.04385 9.62078C6.47662 8.8672 6.95289 8.14981 7.46841 7.47314C8.14645 6.95867 8.86529 6.48336 9.62039 6.05147C9.1143 6.72769 8.64348 7.45068 8.21191 8.21514ZM4.77699 10.6549C5.04037 10.1084 5.32498 9.577 5.62954 9.06227C4.43067 10.242 3.41489 11.564 2.61919 12.9936C3.24246 12.1633 3.96581 11.3806 4.77699 10.6549ZM10.6566 4.78717C10.109 5.05002 9.57652 5.33405 9.06075 5.638C10.2429 4.44155 11.5676 3.42781 13 2.63373C12.168 3.25574 11.3838 3.97762 10.6566 4.78717ZM10.1564 6.40542C10.4445 6.02194 10.7439 5.65479 11.0537 5.30485C11.4694 5.10854 11.8942 4.92471 12.3274 4.75398C11.8262 5.42006 11.3573 6.14596 10.925 6.9248C10.3683 7.14583 9.82672 7.38546 9.30187 7.6426C9.5738 7.21395 9.85893 6.80118 10.1564 6.40542ZM12.226 4.10864C12.5188 3.99537 12.8153 3.88792 13.1152 3.78643C13.5896 3.24905 14.0879 2.76184 14.607 2.32965C13.7718 2.82378 12.9751 3.42014 12.226 4.10864ZM12.0019 6.3606C12.4655 5.62036 12.962 4.94352 13.4864 4.33532C13.7923 4.23463 14.1018 4.14031 14.4149 4.05254C13.9861 4.68843 13.5831 5.3895 13.2094 6.14838C12.7554 6.27814 12.3092 6.4196 11.8713 6.57228C11.9145 6.50119 11.958 6.43062 12.0019 6.3606ZM14.3678 3.40306C14.5792 3.34503 14.792 3.28991 15.0063 3.23776C15.3527 2.7954 15.7133 2.39342 16.0864 2.03514C15.4918 2.41723 14.9173 2.8749 14.3678 3.40306ZM14.0431 5.92551C14.4615 5.13476 14.908 4.4269 15.3768 3.80618C15.636 3.74596 15.8975 3.69017 16.161 3.63892C15.8297 4.24787 15.5172 4.92413 15.2264 5.66028C14.8271 5.74 14.4325 5.82851 14.0431 5.92551ZM16.03 3.01336C16.2142 2.97736 16.3994 2.94353 16.5855 2.9119C16.8603 2.47467 17.1461 2.0817 17.4416 1.73671C16.9571 2.08248 16.485 2.50918 16.03 3.01336ZM15.9748 5.52217C16.2907 4.76534 16.6276 4.08754 16.9804 3.49527C17.2217 3.45756 17.4645 3.42362 17.7089 3.39353C17.485 3.98307 17.2734 4.64071 17.0758 5.35909C16.7053 5.40609 16.3382 5.46052 15.9748 5.52217ZM17.4412 2.78284C17.6213 2.75909 17.8023 2.73738 17.984 2.71775C18.1991 2.22584 18.424 1.79431 18.6572 1.42895C18.4434 1.60541 18.2291 1.81359 18.0147 2.05482C17.8204 2.27355 17.629 2.51652 17.4412 2.78284ZM17.764 5.28077C17.9733 4.54729 18.1958 3.89043 18.4279 3.31657C18.6658 3.29491 18.905 3.27688 19.1454 3.26255C19.0328 3.84063 18.9262 4.48709 18.8266 5.19457C18.4697 5.21653 18.1155 5.24532 17.764 5.28077ZM18.7195 2.64995C18.9059 2.63572 19.093 2.62366 19.2808 2.61381C19.4136 2.0207 19.5538 1.51915 19.6998 1.11985C19.5093 1.31705 19.3033 1.58888 19.086 1.95585C18.962 2.16509 18.8397 2.39673 18.7195 2.64995ZM19.4792 5.16218C19.5819 4.44667 19.691 3.80124 19.8053 3.23265C19.9401 3.22847 20.0753 3.22544 20.2108 3.22359V5.14418C19.9659 5.14699 19.722 5.15301 19.4792 5.16218ZM19.9447 2.58827C20.0332 2.58609 20.1219 2.58441 20.2108 2.58323V1.6076C20.19 1.67239 20.169 1.74034 20.1479 1.81151C20.0789 2.04449 20.0111 2.30381 19.9447 2.58827ZM20.8524 5.14418V3.22359C20.9879 3.22544 21.123 3.22847 21.2578 3.23265C21.3721 3.80124 21.4813 4.44667 21.5839 5.16218C21.3412 5.15301 21.0973 5.14699 20.8524 5.14418ZM20.8524 2.58323C20.9412 2.58441 21.0299 2.58609 21.1185 2.58827C21.0521 2.30381 20.9842 2.04449 20.9153 1.81151C20.8942 1.74034 20.8732 1.67239 20.8524 1.6076V2.58323ZM22.2366 5.19457C22.1369 4.48709 22.0303 3.84063 21.9177 3.26255C22.1582 3.27688 22.3974 3.29491 22.6352 3.31657C22.8674 3.89043 23.0898 4.54729 23.2992 5.28077C22.9477 5.24532 22.5934 5.21653 22.2366 5.19457ZM21.7824 2.61381C21.9702 2.62366 22.1573 2.63572 22.3437 2.64995C22.2234 2.39673 22.1011 2.16509 21.9772 1.95585C21.7599 1.58888 21.5539 1.31705 21.3633 1.11984C21.5094 1.51914 21.6495 2.0207 21.7824 2.61381ZM23.9873 5.35909C23.7898 4.64071 23.5782 3.98307 23.3543 3.39353C23.5986 3.42362 23.8415 3.45756 24.0828 3.49527C24.4355 4.08754 24.7724 4.76534 25.0884 5.52217C24.7249 5.46052 24.3578 5.40609 23.9873 5.35909ZM23.0792 2.71775C23.2609 2.73738 23.4418 2.75909 23.622 2.78284C23.4342 2.51652 23.2427 2.27355 23.0484 2.05482C22.8341 1.81359 22.6197 1.60541 22.406 1.42895C22.6392 1.79431 22.8641 2.22584 23.0792 2.71775ZM25.8368 5.66028C25.5459 4.92413 25.2335 4.24787 24.9022 3.63892C25.1657 3.69017 25.4271 3.74596 25.6864 3.80618C26.1552 4.4269 26.6017 5.13476 27.02 5.92551C26.6307 5.82851 26.2361 5.74001 25.8368 5.66028ZM24.4776 2.9119C24.6637 2.94353 24.8489 2.97736 25.0332 3.01336C24.5781 2.50918 24.106 2.08249 23.6216 1.73672C23.9171 2.08171 24.2029 2.47467 24.4776 2.9119ZM27.8537 6.14838C27.4801 5.38949 27.077 4.68843 26.6483 4.05254C26.9613 4.14031 27.2709 4.23463 27.5768 4.33532C28.1012 4.94352 28.5977 5.62036 29.0613 6.3606C29.1051 6.43062 29.1487 6.50119 29.1919 6.57228C28.754 6.4196 28.3077 6.27813 27.8537 6.14838ZM26.0568 3.23775C26.2711 3.28991 26.484 3.34503 26.6954 3.40306C26.1458 2.8749 25.5713 2.41723 24.9768 2.03514C25.3499 2.39342 25.7105 2.7954 26.0568 3.23775ZM30.1381 6.9248C29.7058 6.14596 29.237 5.42006 28.7358 4.75398C29.169 4.92471 29.5938 5.10854 30.0094 5.30485C30.3192 5.65479 30.6186 6.02194 30.9068 6.40542C31.2042 6.80118 31.4894 7.21395 31.7613 7.6426C31.2364 7.38546 30.6949 7.14583 30.1381 6.9248ZM27.9479 3.78643C28.2478 3.88791 28.5443 3.99538 28.8372 4.10864C28.0881 3.42013 27.2914 2.82377 26.4561 2.32965C26.9752 2.76183 27.4735 3.24904 27.9479 3.78643ZM32.8512 8.21514C32.4197 7.45067 31.9489 6.72768 31.4428 6.05146C32.1979 6.48335 32.9167 6.95866 33.5947 7.47314C34.1103 8.14981 34.5865 8.8672 35.0193 9.62078C34.3417 9.11571 33.6173 8.64584 32.8512 8.21514ZM30.4065 4.78717C30.9542 5.05001 31.4866 5.33405 32.0024 5.638C30.8203 4.44154 29.4956 3.42781 28.0631 2.63372C28.8951 3.25573 29.6793 3.97762 30.4065 4.78717ZM36.2862 10.6549C36.0228 10.1084 35.7382 9.577 35.4336 9.06226C36.6325 10.242 37.6483 11.564 38.444 12.9936C37.8207 12.1633 37.0973 11.3806 36.2862 10.6549ZM34.6646 10.1556C35.0489 10.4433 35.4168 10.742 35.7674 11.0512C35.9641 11.466 36.1483 11.8899 36.3194 12.3223C35.652 11.8221 34.9246 11.3542 34.1442 10.9228C33.9227 10.3671 33.6826 9.82668 33.4249 9.30289C33.8545 9.57427 34.2681 9.85883 34.6646 10.1556ZM36.9661 12.2211C37.0796 12.5134 37.1872 12.8093 37.2889 13.1086C37.8274 13.582 38.3156 14.0793 38.7487 14.5973C38.2535 13.7638 37.656 12.9687 36.9661 12.2211ZM34.7095 11.9975C35.4513 12.4601 36.1295 12.9556 36.7389 13.479C36.8398 13.7842 36.9343 14.0932 37.0223 14.4056C36.3851 13.9777 35.6826 13.5755 34.9222 13.2025C34.7922 12.7495 34.6504 12.3041 34.4974 11.8671C34.5687 11.9103 34.6394 11.9537 34.7095 11.9975ZM37.6731 14.3586C37.7312 14.5695 37.7864 14.782 37.8387 14.9958C38.282 15.3415 38.6848 15.7013 39.0438 16.0737C38.6609 15.4803 38.2023 14.907 37.6731 14.3586ZM35.1455 14.0346C35.9379 14.4521 36.6472 14.8977 37.2691 15.3655C37.3295 15.6243 37.3854 15.8852 37.4367 16.1481C36.8266 15.8175 36.1489 15.5057 35.4113 15.2154C35.3314 14.8169 35.2427 14.4232 35.1455 14.0346ZM38.0636 16.0174C38.0996 16.2013 38.1335 16.3861 38.1652 16.5718C38.6033 16.846 38.9971 17.1312 39.3428 17.4262C38.9963 16.9427 38.5688 16.4715 38.0636 16.0174ZM35.5497 15.9623C36.308 16.2776 36.9872 16.6139 37.5807 16.9659C37.6185 17.2067 37.6525 17.4491 37.6826 17.6929C37.0919 17.4695 36.4329 17.2583 35.7131 17.0612C35.666 16.6914 35.6114 16.325 35.5497 15.9623ZM38.2945 17.4257C38.3183 17.6055 38.3401 17.7861 38.3598 17.9674C38.8527 18.1821 39.2851 18.4066 39.6512 18.6393C39.4744 18.426 39.2658 18.212 39.024 17.9982C38.8049 17.8042 38.5614 17.6132 38.2945 17.4257ZM35.7916 17.7479C36.5265 17.9568 37.1847 18.1788 37.7597 18.4105C37.7814 18.6479 37.7995 18.8866 37.8139 19.1266C37.2346 19.0142 36.5869 18.9078 35.8779 18.8084C35.8559 18.4522 35.8271 18.0987 35.7916 17.7479ZM38.4277 18.7015C38.442 18.8875 38.454 19.0742 38.4639 19.2616C39.0582 19.3942 39.5608 19.5341 39.9609 19.6798C39.7633 19.4897 39.4909 19.2841 39.1232 19.0672C38.9135 18.9435 38.6814 18.8215 38.4277 18.7015ZM35.9104 19.4597C36.6273 19.5621 37.2741 19.6711 37.8438 19.7851C37.848 19.9196 37.851 20.0545 37.8529 20.1897H35.9284C35.9256 19.9453 35.9196 19.702 35.9104 19.4597ZM38.4895 19.9242C38.4917 20.0126 38.4934 20.1011 38.4946 20.1897H39.4722C39.4072 20.169 39.3392 20.148 39.2678 20.127C39.0344 20.0582 38.7745 19.9905 38.4895 19.9242ZM35.9284 20.8301H37.8529C37.851 20.9653 37.848 21.1002 37.8438 21.2347C37.2741 21.3487 36.6273 21.4577 35.9104 21.5601C35.9196 21.3178 35.9256 21.0745 35.9284 20.8301ZM38.4946 20.8301C38.4934 20.9187 38.4917 21.0072 38.4895 21.0956C38.7745 21.0293 39.0344 20.9617 39.2678 20.8928C39.3392 20.8718 39.4072 20.8508 39.4722 20.8301H38.4946ZM35.8779 22.2114C36.5869 22.112 37.2346 22.0056 37.8139 21.8933C37.7995 22.1332 37.7814 22.3719 37.7597 22.6093C37.1847 22.841 36.5265 23.063 35.7916 23.2719C35.8271 22.9211 35.8559 22.5676 35.8779 22.2114ZM38.4639 21.7582C38.454 21.9456 38.442 22.1323 38.4277 22.3183C38.6814 22.1983 38.9135 22.0763 39.1232 21.9526C39.4909 21.7357 39.7633 21.5302 39.9609 21.34C39.5608 21.4858 39.0582 21.6256 38.4639 21.7582ZM35.7131 23.9587C36.4329 23.7615 37.0919 23.5503 37.6826 23.3269C37.6525 23.5708 37.6185 23.8131 37.5807 24.0539C36.9872 24.406 36.308 24.7422 35.5497 25.0575C35.6114 24.6948 35.666 24.3284 35.7131 23.9587ZM38.3598 23.0524C38.3401 23.2337 38.3183 23.4143 38.2945 23.5941C38.5614 23.4066 38.8049 23.2156 39.024 23.0217C39.2658 22.8078 39.4744 22.5939 39.6512 22.3805C39.2851 22.6132 38.8527 22.8377 38.3598 23.0524ZM35.4113 25.8044C36.1489 25.5141 36.8266 25.2023 37.4367 24.8717C37.3854 25.1346 37.3295 25.3955 37.2691 25.6543C36.6472 26.1221 35.9379 26.5677 35.1455 26.9852C35.2427 26.5966 35.3314 26.2029 35.4113 25.8044ZM38.1652 24.448C38.1335 24.6337 38.0996 24.8185 38.0636 25.0024C38.5688 24.5483 38.9963 24.0771 39.3428 23.5936C38.9971 23.8886 38.6033 24.1738 38.1652 24.448ZM34.9222 27.8173C35.6826 27.4444 36.3851 27.0421 37.0223 26.6142C36.9343 26.9266 36.8398 27.2356 36.7389 27.5409C36.1295 28.0642 35.4513 28.5597 34.7095 29.0223C34.6394 29.0661 34.5687 29.1096 34.4974 29.1527C34.6504 28.7157 34.7922 28.2703 34.9222 27.8173ZM37.8387 26.024C37.7864 26.2378 37.7312 26.4503 37.6731 26.6612C38.2023 26.1128 38.6609 25.5395 39.0438 24.9461C38.6848 25.3185 38.282 25.6783 37.8387 26.024ZM34.1442 30.0971C34.9246 29.6656 35.652 29.1977 36.3194 28.6975C36.1483 29.1299 35.9641 29.5538 35.7674 29.9686C35.4168 30.2778 35.0489 30.5766 34.6646 30.8642C34.2681 31.161 33.8545 31.4455 33.4249 31.7169C33.6826 31.1931 33.9227 30.6527 34.1442 30.0971ZM37.2889 27.9113C37.1872 28.2106 37.0796 28.5064 36.9661 28.7987C37.656 28.0511 38.2535 27.2561 38.7487 26.4225C38.3156 26.9406 37.8274 27.4378 37.2889 27.9113ZM32.8512 32.8047C33.6173 32.374 34.3417 31.9041 35.0193 31.399C34.5865 32.1526 34.1103 32.87 33.5947 33.5467C32.9167 34.0611 32.1979 34.5365 31.4428 34.9683C31.9489 34.2921 32.4197 33.5691 32.8512 32.8047ZM36.2862 30.3649C36.0228 30.9115 35.7382 31.4428 35.4336 31.9576C36.6325 30.7778 37.6483 29.4558 38.444 28.0262C37.8207 28.8566 37.0974 29.6392 36.2862 30.3649ZM30.4065 36.2326C30.9542 35.9698 31.4866 35.6858 32.0024 35.3818C30.8203 36.5783 29.4956 37.592 28.0631 38.3861C28.8951 37.7641 29.6793 37.0422 30.4065 36.2326ZM30.9068 34.6144C30.6186 34.9979 30.3192 35.365 30.0094 35.715C29.5938 35.9113 29.169 36.0951 28.7358 36.2658C29.237 35.5997 29.7058 34.8739 30.1381 34.095C30.6949 33.874 31.2364 33.6343 31.7613 33.3772C31.4894 33.8059 31.2042 34.2186 30.9068 34.6144ZM28.8372 36.9112C28.5443 37.0244 28.2478 37.1319 27.9479 37.2334C27.4735 37.7708 26.9752 38.258 26.4561 38.6902C27.2914 38.196 28.0881 37.5997 28.8372 36.9112ZM29.0613 34.6592C28.5977 35.3995 28.1012 36.0763 27.5768 36.6845C27.2709 36.7852 26.9613 36.8795 26.6483 36.9673C27.077 36.3314 27.4801 35.6303 27.8537 34.8714C28.3077 34.7417 28.754 34.6002 29.1919 34.4475C29.1487 34.5186 29.1051 34.5892 29.0613 34.6592ZM26.6954 37.6168C26.484 37.6748 26.2711 37.7299 26.0568 37.7821C25.7105 38.2244 25.3499 38.6264 24.9768 38.9847C25.5713 38.6026 26.1458 38.1449 26.6954 37.6168ZM27.02 35.0943C26.6017 35.8851 26.1552 36.5929 25.6864 37.2136C25.4271 37.2739 25.1657 37.3296 24.9022 37.3809C25.2335 36.7719 25.5459 36.0957 25.8368 35.3595C26.2361 35.2798 26.6307 35.1913 27.02 35.0943ZM25.0332 38.0065C24.8489 38.0425 24.6637 38.0763 24.4776 38.1079C24.2029 38.5451 23.9171 38.9381 23.6216 39.2831C24.106 38.9373 24.5782 38.5106 25.0332 38.0065ZM25.0884 35.4976C24.7725 36.2545 24.4355 36.9323 24.0828 37.5245C23.8415 37.5623 23.5986 37.5962 23.3543 37.6263C23.5782 37.0367 23.7898 36.3791 23.9873 35.6607C24.3578 35.6137 24.7249 35.5593 25.0884 35.4976ZM23.622 38.237C23.4418 38.2607 23.2609 38.2824 23.0792 38.3021C22.8641 38.794 22.6392 39.2255 22.406 39.5909C22.6197 39.4144 22.8341 39.2062 23.0484 38.965C23.2427 38.7463 23.4342 38.5033 23.622 38.237ZM23.2992 35.739C23.0898 36.4725 22.8674 37.1294 22.6352 37.7032C22.3974 37.7249 22.1582 37.7429 21.9177 37.7573C22.0303 37.1792 22.1369 36.5327 22.2366 35.8252C22.5934 35.8033 22.9477 35.7745 23.2992 35.739ZM22.3437 38.3699C22.1573 38.3841 21.9702 38.3962 21.7824 38.406C21.6495 38.9991 21.5094 39.5007 21.3633 39.9C21.5539 39.7028 21.7599 39.4309 21.9772 39.064C22.1011 38.8547 22.2234 38.6231 22.3437 38.3699ZM21.5839 35.8576C21.4813 36.5731 21.3721 37.2186 21.2578 37.7872C21.123 37.7913 20.9879 37.7944 20.8524 37.7962V35.8756C21.0973 35.8728 21.3412 35.8668 21.5839 35.8576ZM21.1185 38.4315C21.0299 38.4337 20.9412 38.4354 20.8524 38.4366V39.4122C20.8732 39.3474 20.8942 39.2795 20.9153 39.2083C20.9842 38.9753 21.0521 38.716 21.1185 38.4315ZM20.2108 39.4122V38.4366C20.1219 38.4354 20.0332 38.4337 19.9447 38.4315C20.0111 38.716 20.0789 38.9753 20.1479 39.2083C20.169 39.2795 20.19 39.3474 20.2108 39.4122ZM21.6721 35.2133C21.4003 35.2247 21.127 35.2321 20.8524 35.2353V33.3147C21.2015 33.3113 21.5484 33.3026 21.8931 33.2885C21.8356 33.8585 21.7743 34.4028 21.7097 34.9192C21.6973 35.0183 21.6847 35.1164 21.6721 35.2133ZM21.9554 32.645C21.5905 32.6609 21.2227 32.6707 20.8524 32.6743V30.7537C21.276 30.7505 21.6965 30.7408 22.1136 30.725C22.0653 31.3901 22.0124 32.031 21.9554 32.645ZM22.1583 30.0825C21.7269 30.0996 21.2914 30.11 20.8524 30.1134V28.1928C21.3292 28.19 21.802 28.1812 22.2704 28.1665C22.2371 28.8231 22.1996 29.4624 22.1583 30.0825ZM22.3014 27.5249C21.8232 27.5404 21.34 27.5496 20.8524 27.5524V25.6318C21.365 25.6299 21.873 25.6232 22.3759 25.612C22.3549 26.263 22.33 26.9012 22.3014 27.5249ZM22.3952 24.9711C21.8863 24.9826 21.3718 24.9895 20.8524 24.9915V23.0709C21.3857 23.0698 21.914 23.0663 22.4367 23.0603C22.4266 23.7073 22.4127 24.3447 22.3952 24.9711ZM22.4454 22.4198C21.92 22.4259 21.3887 22.4295 20.8524 22.4305V20.8301H22.4561C22.4551 21.3653 22.4515 21.8955 22.4454 22.4198ZM22.4561 20.1897H20.8524V18.5893C21.3887 18.5903 21.92 18.5939 22.4454 18.6C22.4515 19.1243 22.4551 19.6545 22.4561 20.1897ZM22.4367 17.9595C21.914 17.9535 21.3857 17.95 20.8524 17.949V16.0283C21.3718 16.0303 21.8863 16.0372 22.3952 16.0487C22.4127 16.6751 22.4266 17.3125 22.4367 17.9595ZM20.2108 17.949V16.0283C19.6914 16.0303 19.1769 16.0372 18.668 16.0487C18.6505 16.6751 18.6366 17.3125 18.6265 17.9595C19.1492 17.9535 19.6775 17.95 20.2108 17.949ZM22.3759 15.4078C21.873 15.3966 21.365 15.39 20.8524 15.388V13.4674C21.34 13.4702 21.8232 13.4795 22.3014 13.4949C22.33 14.1186 22.3549 14.7568 22.3759 15.4078ZM20.2108 15.388V13.4674C19.7232 13.4702 19.24 13.4795 18.7618 13.4949C18.7332 14.1186 18.7083 14.7568 18.6873 15.4078C19.1901 15.3966 19.6982 15.39 20.2108 15.388ZM22.2704 12.8533C21.802 12.8386 21.3292 12.8298 20.8524 12.827V10.9064C21.2914 10.9098 21.7269 10.9202 22.1583 10.9374C22.1996 11.5574 22.2371 12.1967 22.2704 12.8533ZM20.2108 12.827V10.9064C19.7717 10.9098 19.3363 10.9202 18.9049 10.9374C18.8635 11.5574 18.8261 12.1967 18.7927 12.8533C19.2611 12.8386 19.734 12.8298 20.2108 12.827ZM22.1136 10.2948C21.6965 10.279 21.276 10.2693 20.8524 10.2661V8.34548C21.2227 8.34908 21.5905 8.35892 21.9554 8.37482C22.0124 8.98884 22.0653 9.62976 22.1136 10.2948ZM20.2108 10.2661V8.34548C19.8405 8.34908 19.4727 8.35892 19.1078 8.37482C19.0507 8.98884 18.9979 9.62976 18.9496 10.2948C19.3666 10.279 19.7871 10.2693 20.2108 10.2661ZM21.8931 7.73131C21.5484 7.71724 21.2015 7.70847 20.8524 7.70513V5.78454C21.127 5.78776 21.4003 5.79511 21.6721 5.80651C21.6847 5.90344 21.6973 6.00149 21.7097 6.10065C21.7743 6.61696 21.8356 7.16133 21.8931 7.73131ZM20.2108 7.70513V5.78454C19.9361 5.78776 19.6629 5.79511 19.3911 5.80651C19.3784 5.90344 19.3659 6.00149 19.3535 6.10065C19.2888 6.61696 19.2276 7.16133 19.1701 7.73131C19.5147 7.71724 19.8617 7.70847 20.2108 7.70513ZM17.5838 5.94363C17.9656 5.90155 18.3509 5.8675 18.7396 5.84175C18.6621 6.44508 18.5894 7.08719 18.522 7.76417C18.058 7.79228 17.5985 7.83003 17.144 7.87709C17.263 7.28118 17.39 6.7134 17.5245 6.17653C17.5442 6.09817 17.5639 6.02054 17.5838 5.94363ZM17.0182 8.53444C17.4931 8.4823 17.974 8.44053 18.4602 8.40955C18.4039 9.02281 18.3518 9.662 18.3042 10.3245C17.7656 10.3534 17.2333 10.3928 16.708 10.4422C16.8027 9.78146 16.9063 9.14464 17.0182 8.53444ZM16.6186 11.094C17.1579 11.0412 17.7053 10.9991 18.2598 10.9682C18.219 11.5865 18.182 12.2236 18.1491 12.8773C17.5584 12.9028 16.9753 12.9378 16.401 12.9817C16.4656 12.335 16.5383 11.7051 16.6186 11.094ZM16.3395 13.6287C16.9232 13.5828 17.5166 13.5463 18.1184 13.5196C18.0901 14.1411 18.0655 14.7767 18.0448 15.4246C17.4194 15.4434 16.8027 15.4693 16.196 15.5018C16.2364 14.8646 16.2844 14.2396 16.3395 13.6287ZM16.158 16.1451C16.7704 16.1117 17.3934 16.0851 18.0257 16.0658C18.0084 16.6897 17.9947 17.3243 17.9847 17.9682C17.3395 17.9781 16.7036 17.9918 16.0784 18.0091C16.0978 17.3781 16.1245 16.7563 16.158 16.1451ZM17.9654 20.1898C17.9665 19.6576 17.97 19.1303 17.976 18.6087C17.3277 18.6188 16.689 18.6326 16.0613 18.6501C16.0498 19.158 16.0429 19.6714 16.0409 20.1898H17.9654ZM18.6071 20.1898C18.6081 19.6545 18.6117 19.1243 18.6178 18.6C19.1432 18.5939 19.6744 18.5903 20.2108 18.5893V20.1898H18.6071ZM15.5133 16.1831C15.4807 16.7886 15.4548 17.4041 15.436 18.0281C14.7867 18.0488 14.1499 18.0734 13.5271 18.1016C13.5538 17.501 13.5904 16.9089 13.6364 16.3263C14.2486 16.2713 14.8748 16.2234 15.5133 16.1831ZM15.4191 18.6693C14.7668 18.6903 14.1274 18.7151 13.5024 18.7437C13.4869 19.2209 13.4776 19.7032 13.4748 20.1898H15.3993C15.4013 19.6782 15.4079 19.1712 15.4191 18.6693ZM12.9881 16.3876C12.9441 16.9608 12.9091 17.5427 12.8835 18.1322C12.2285 18.1651 11.5901 18.202 10.9705 18.2427C11.0015 17.6894 11.0437 17.1431 11.0966 16.6048C11.7089 16.5247 12.3401 16.4522 12.9881 16.3876ZM12.8595 18.7746C12.2015 18.8078 11.5609 18.8452 10.9396 18.8865C10.9225 19.317 10.9121 19.7516 10.9086 20.1898H12.8332C12.8359 19.7139 12.8447 19.242 12.8595 18.7746ZM10.4435 16.6941C10.394 17.2183 10.3546 17.7495 10.3255 18.287C9.6617 18.3345 9.02122 18.3866 8.40671 18.4428C8.43777 17.9575 8.47962 17.4776 8.53186 17.0037C9.14329 16.892 9.78141 16.7886 10.4435 16.6941ZM10.2958 18.9311C9.6294 18.9793 8.98718 19.032 8.37192 19.089C8.35599 19.4532 8.34613 19.8202 8.34252 20.1898H10.267C10.2703 19.767 10.2799 19.3473 10.2958 18.9311ZM7.87318 17.1292C7.82603 17.5827 7.7882 18.0413 7.76003 18.5044C7.08168 18.5717 6.43827 18.6442 5.83371 18.7215C5.85952 18.3337 5.89364 17.9491 5.93581 17.5681C6.01287 17.5483 6.09066 17.5285 6.16917 17.5089C6.70713 17.3747 7.27606 17.2479 7.87318 17.1292ZM6.09314 19.3342C5.99378 19.3466 5.89554 19.3591 5.79841 19.3717C5.78699 19.6429 5.77962 19.9156 5.77639 20.1898H7.70088C7.70422 19.8414 7.71301 19.4951 7.72711 19.1512C7.15597 19.2085 6.6105 19.2697 6.09314 19.3342ZM7.94975 16.4616C7.27146 16.593 6.62707 16.7348 6.02042 16.886C6.07606 16.4813 6.14085 16.0809 6.21446 15.6853L6.23884 15.6762C6.84154 15.4506 7.48364 15.239 8.16115 15.0429C8.08049 15.5094 8.00989 15.9825 7.94975 16.4616ZM8.29125 14.3403C7.61526 14.5285 6.97125 14.7318 6.36283 14.949C6.45799 14.5106 6.56409 14.0786 6.68069 13.6535C7.29309 13.3637 7.9435 13.0926 8.62802 12.8423C8.50405 13.3325 8.39162 13.8321 8.29125 14.3403ZM8.82913 12.0908C8.16267 12.3219 7.52495 12.5722 6.9192 12.8401C7.07539 12.3402 7.24633 11.8509 7.43126 11.3731C8.03764 11.0468 8.67681 10.7424 9.34547 10.4623C9.1588 10.991 8.98641 11.5343 8.82913 12.0908ZM9.64841 9.64874C9.01073 9.89785 8.39656 10.1682 7.80845 10.4582C8.07708 9.84537 8.36938 9.25383 8.68355 8.68582C9.2527 8.37228 9.84545 8.08057 10.4595 7.81249C10.1689 8.39942 9.89803 9.01235 9.64841 9.64874ZM10.4636 9.3464C10.7443 8.6791 11.0493 8.04122 11.3762 7.43606C11.855 7.25151 12.3453 7.08092 12.8462 6.92504C12.5778 7.52957 12.327 8.166 12.0954 8.83111C11.5378 8.98807 10.9934 9.16011 10.4636 9.3464ZM12.8484 8.63041C13.0993 7.94727 13.3709 7.29818 13.6613 6.68701C14.0873 6.57064 14.5201 6.46476 14.9594 6.36979C14.7418 6.97698 14.538 7.61969 14.3495 8.29432C13.8403 8.39448 13.3397 8.50669 12.8484 8.63041ZM15.6881 6.24606L15.6972 6.22172C16.0936 6.14826 16.4948 6.08361 16.9004 6.02807C16.7488 6.6335 16.6068 7.27658 16.4751 7.95351C15.995 8.01352 15.5209 8.08398 15.0535 8.16448C15.25 7.48834 15.4621 6.84754 15.6881 6.24606ZM14.8633 8.84858C15.3517 8.75931 15.8481 8.68125 16.3517 8.61491C16.2429 9.2226 16.1423 9.85501 16.0505 10.5096C15.4983 10.5709 14.9544 10.6434 14.42 10.7264C14.5552 10.077 14.7033 9.45017 14.8633 8.84858ZM14.2868 11.3959C14.835 11.307 15.394 11.2295 15.9625 11.164C15.8844 11.7709 15.8138 12.3953 15.7509 13.0355C15.1503 13.0891 14.56 13.1526 13.9812 13.2255C14.072 12.5994 14.1741 11.989 14.2868 11.3959ZM13.8908 13.8826C14.4784 13.8064 15.0788 13.74 15.6904 13.6839C15.6368 14.2898 15.5901 14.9087 15.5508 15.5392C14.919 15.5784 14.2988 15.625 13.6918 15.6785C13.7479 15.0681 13.8145 14.469 13.8908 13.8826ZM13.2324 13.9728C13.1594 14.5504 13.0958 15.1395 13.0421 15.7389C12.4006 15.8016 11.7748 15.8722 11.1667 15.9501C11.2324 15.3827 11.3101 14.8249 11.3991 14.2777C11.9934 14.1653 12.6051 14.0634 13.2324 13.9728ZM10.7283 14.4107C10.6451 14.944 10.5725 15.4868 10.511 16.0379C9.8551 16.1295 9.22142 16.2299 8.61249 16.3384C8.67897 15.8359 8.75719 15.3405 8.84664 14.8531C9.44945 14.6934 10.0775 14.5456 10.7283 14.4107ZM10.8403 13.7343C10.2003 13.8627 9.58052 14.0036 8.98335 14.1559C9.09472 13.6225 9.21967 13.0994 9.3575 12.5877C9.94305 12.3929 10.551 12.2127 11.1792 12.0485C11.0543 12.5979 10.9411 13.1602 10.8403 13.7343ZM11.3476 11.3445C10.7366 11.4972 10.143 11.6647 9.56864 11.846C9.74402 11.262 9.93647 10.6942 10.1449 10.1442C10.6959 9.93621 11.2649 9.74415 11.8502 9.56913C11.6685 10.1423 11.5006 10.7347 11.3476 11.3445ZM12.053 11.1764C12.2176 10.5495 12.3981 9.94278 12.5933 9.35841C13.1061 9.22086 13.6302 9.09616 14.1647 8.98502C14.0121 9.58098 13.871 10.1995 13.7422 10.8383C13.167 10.9388 12.6035 11.0517 12.053 11.1764ZM11.8785 11.8743C12.442 11.7406 13.0205 11.6196 13.6124 11.5119C13.5047 12.0972 13.4072 12.6983 13.3205 13.3134C12.7042 13.3999 12.1019 13.4973 11.5153 13.6047C11.6232 13.014 11.7446 12.4367 11.8785 11.8743ZM22.5412 7.76417C22.4737 7.08719 22.401 6.44508 22.3236 5.84175C22.7122 5.8675 23.0976 5.90155 23.4793 5.94363C23.4992 6.02054 23.519 6.09817 23.5386 6.17653C23.6731 6.7134 23.8002 7.28118 23.9191 7.87709C23.4647 7.83003 23.0052 7.79228 22.5412 7.76417ZM24.5881 7.95351C24.4564 7.27658 24.3143 6.6335 24.1628 6.02807C24.5684 6.08361 24.9695 6.14826 25.3659 6.22172L25.3751 6.24606C25.6011 6.84754 25.8131 7.48834 26.0096 8.16448C25.5422 8.08398 25.0682 8.01352 24.5881 7.95351ZM26.7137 8.29432C26.5251 7.61969 26.3214 6.97698 26.1038 6.36979C26.543 6.46476 26.9759 6.57065 27.4018 6.68701C27.6922 7.29818 27.9639 7.94727 28.2147 8.63041C27.7235 8.50669 27.2229 8.39448 26.7137 8.29432ZM28.9677 8.83111C28.7362 8.16599 28.4854 7.52957 28.2169 6.92504C28.7178 7.08092 29.2081 7.25151 29.6869 7.43606C30.0139 8.04122 30.3188 8.6791 30.5996 9.3464C30.0698 9.16011 29.5254 8.98807 28.9677 8.83111ZM31.4147 9.64874C31.1651 9.01235 30.8942 8.39942 30.6036 7.81249C31.2177 8.08057 31.8105 8.37228 32.3796 8.68582C32.6938 9.25383 32.9861 9.84538 33.2547 10.4582C32.6666 10.1682 32.0524 9.89785 31.4147 9.64874ZM31.7177 10.4623C32.3863 10.7424 33.0255 11.0468 33.6319 11.3731C33.8168 11.8509 33.9878 12.3402 34.144 12.8401C33.5382 12.5722 32.9005 12.3219 32.234 12.0908C32.0768 11.5343 31.9044 10.991 31.7177 10.4623ZM32.4351 12.8423C33.1197 13.0926 33.7701 13.3637 34.3825 13.6535C34.4991 14.0786 34.6052 14.5106 34.7003 14.949C34.0919 14.7318 33.4479 14.5285 32.7719 14.3403C32.6715 13.8321 32.5591 13.3325 32.4351 12.8423ZM34.8243 15.6762L34.8487 15.6853C34.9223 16.0809 34.9871 16.4813 35.0427 16.886C34.4361 16.7348 33.7917 16.593 33.1134 16.4616C33.0533 15.9825 32.9827 15.5094 32.902 15.0429C33.5795 15.239 34.2216 15.4506 34.8243 15.6762ZM34.894 17.5089C34.9725 17.5285 35.0503 17.5483 35.1273 17.5681C35.1695 17.9491 35.2036 18.3337 35.2295 18.7215C34.6249 18.6442 33.9815 18.5717 33.3031 18.5044C33.275 18.0413 33.2371 17.5827 33.19 17.1292C33.7871 17.2479 34.356 17.3747 34.894 17.5089ZM34.97 19.3342C35.0694 19.3466 35.1676 19.3591 35.2648 19.3717C35.2762 19.6429 35.2835 19.9156 35.2868 20.1897H33.3623C33.3589 19.8414 33.3502 19.4951 33.3361 19.1512C33.9072 19.2085 34.4527 19.2697 34.97 19.3342ZM33.3623 20.8301H35.2868C35.2835 21.1042 35.2762 21.3769 35.2648 21.6481C35.1676 21.6607 35.0694 21.6732 34.97 21.6856C34.4527 21.7502 33.9072 21.8113 33.3361 21.8687C33.3502 21.5247 33.3589 21.1784 33.3623 20.8301ZM33.3031 22.5155C33.9815 22.4481 34.6249 22.3756 35.2295 22.2983C35.2036 22.6862 35.1695 23.0707 35.1273 23.4517C35.0503 23.4716 34.9725 23.4913 34.894 23.5109C34.356 23.6451 33.7871 23.7719 33.19 23.8906C33.2371 23.4371 33.275 22.9785 33.3031 22.5155ZM33.1134 24.5582C33.7917 24.4268 34.4361 24.285 35.0427 24.1338C34.9871 24.5385 34.9223 24.9389 34.8487 25.3345L34.8243 25.3436C34.2216 25.5692 33.5795 25.7808 32.902 25.9769C32.9827 25.5104 33.0533 25.0373 33.1134 24.5582ZM32.7719 26.6795C33.4479 26.4913 34.0919 26.288 34.7003 26.0708C34.6052 26.5092 34.4991 26.9412 34.3825 27.3663C33.7701 27.6561 33.1197 27.9272 32.4351 28.1775C32.5591 27.6873 32.6715 27.1877 32.7719 26.6795ZM32.234 28.929C32.9005 28.6979 33.5382 28.4476 34.144 28.1797C33.9878 28.6796 33.8168 29.1689 33.6319 29.6468C33.0255 29.973 32.3863 30.2774 31.7177 30.5575C31.9044 30.0288 32.0768 29.4855 32.234 28.929ZM31.4147 31.3711C32.0524 31.122 32.6666 30.8516 33.2547 30.5616C32.9861 31.1744 32.6938 31.766 32.3796 32.334C31.8105 32.6475 31.2177 32.9392 30.6036 33.2073C30.8942 32.6204 31.1651 32.0075 31.4147 31.3711ZM30.5996 31.6734C30.3188 32.3407 30.0139 32.9786 29.6869 33.5838C29.2081 33.7683 28.7178 33.9389 28.2169 34.0948C28.4854 33.4902 28.7362 32.8538 28.9677 32.1887C29.5254 32.0317 30.0698 31.8597 30.5996 31.6734ZM28.2147 32.3894C27.9639 33.0725 27.6922 33.7216 27.4018 34.3328C26.9759 34.4492 26.543 34.555 26.1038 34.65C26.3214 34.0428 26.5251 33.4001 26.7137 32.7255C27.2229 32.6253 27.7235 32.5131 28.2147 32.3894ZM25.3751 34.7738L25.3659 34.7981C24.9695 34.8716 24.5684 34.9362 24.1628 34.9917C24.3143 34.3863 24.4564 33.7432 24.5881 33.0663C25.0682 33.0063 25.5422 32.9358 26.0096 32.8553C25.8131 33.5315 25.6011 34.1723 25.3751 34.7738ZM23.5386 34.8433C23.519 34.9216 23.4992 34.9993 23.4793 35.0762C23.0976 35.1183 22.7122 35.1523 22.3236 35.1781C22.401 34.5747 22.4737 33.9326 22.5412 33.2556C23.0052 33.2275 23.4647 33.1898 23.9191 33.1427C23.8002 33.7386 23.6731 34.3064 23.5386 34.8433ZM24.0449 32.4854C23.57 32.5375 23.0892 32.5793 22.6029 32.6103C22.6592 31.997 22.7114 31.3578 22.759 30.6954C23.2975 30.6664 23.8299 30.627 24.3551 30.5776C24.2605 31.2384 24.1568 31.8752 24.0449 32.4854ZM24.4446 29.9258C23.9052 29.9786 23.3578 30.0207 22.8034 30.0517C22.8442 29.4333 22.8812 28.7962 22.9141 28.1425C23.5048 28.117 24.0878 28.082 24.6622 28.0381C24.5975 28.6848 24.5248 29.3147 24.4446 29.9258ZM24.7237 27.3911C24.1399 27.437 23.5466 27.4736 22.9448 27.5002C22.9731 26.8787 22.9976 26.2431 23.0184 25.5952C23.6437 25.5764 24.2604 25.5505 24.8672 25.518C24.8267 26.1553 24.7787 26.7802 24.7237 27.3911ZM24.9052 24.8747C24.2928 24.9081 23.6698 24.9347 23.0375 24.954C23.0548 24.3301 23.0685 23.6955 23.0785 23.0517C23.7236 23.0417 24.3595 23.028 24.9847 23.0108C24.9653 23.6418 24.9387 24.2635 24.9052 24.8747ZM25.0018 22.3697C24.3742 22.3872 23.7354 22.401 23.0871 22.4111C23.0931 21.8895 23.0967 21.3623 23.0977 20.8301H25.0222C25.0202 21.3484 25.0134 21.8618 25.0018 22.3697ZM25.0222 20.1897H23.0977C23.0967 19.6576 23.0931 19.1303 23.0871 18.6087C23.7354 18.6188 24.3742 18.6326 25.0018 18.6501C25.0134 19.158 25.0202 19.6714 25.0222 20.1897ZM24.9847 18.0091C24.3595 17.9918 23.7236 17.9781 23.0785 17.9682C23.0685 17.3243 23.0548 16.6897 23.0375 16.0658C23.6698 16.0851 24.2928 16.1117 24.9052 16.1451C24.9387 16.7563 24.9653 17.3781 24.9847 18.0091ZM24.8672 15.5018C24.2604 15.4693 23.6437 15.4434 23.0184 15.4246C22.9976 14.7767 22.9731 14.1411 22.9448 13.5196C23.5466 13.5463 24.1399 13.5828 24.7237 13.6287C24.7787 14.2396 24.8267 14.8646 24.8672 15.5018ZM24.6622 12.9817C24.0878 12.9378 23.5048 12.9028 22.9141 12.8773C22.8812 12.2236 22.8442 11.5865 22.8034 10.9682C23.3578 10.9991 23.9052 11.0412 24.4446 11.094C24.5248 11.7051 24.5975 12.335 24.6622 12.9817ZM24.3551 10.4422C23.8299 10.3928 23.2975 10.3534 22.759 10.3245C22.7114 9.662 22.6592 9.02281 22.6029 8.40954C23.0892 8.44053 23.57 8.4823 24.0449 8.53444C24.1568 9.14464 24.2605 9.78146 24.3551 10.4422ZM25.0127 10.5096C24.9208 9.85501 24.8202 9.2226 24.7115 8.61491C25.2151 8.68125 25.7115 8.75931 26.1999 8.84858C26.3599 9.45017 26.508 10.077 26.6432 10.7264C26.1087 10.6434 25.5649 10.5709 25.0127 10.5096ZM27.321 10.8383C27.1922 10.1995 27.0511 9.58098 26.8985 8.98502C27.433 9.09616 27.9571 9.22086 28.4698 9.35841C28.6651 9.94278 28.8456 10.5495 29.0101 11.1764C28.4596 11.0517 27.8961 10.9388 27.321 10.8383ZM29.7156 11.3445C29.5625 10.7347 29.3947 10.1423 29.213 9.56913C29.7982 9.74415 30.3672 9.93621 30.9183 10.1442C31.1267 10.6942 31.3191 11.262 31.4945 11.846C30.9202 11.6647 30.3266 11.4972 29.7156 11.3445ZM29.8839 12.0485C30.5121 12.2127 31.1201 12.3929 31.7057 12.5877C31.8435 13.0994 31.9684 13.6225 32.0798 14.1559C31.4826 14.0036 30.8629 13.8627 30.2228 13.7343C30.1221 13.1602 30.0089 12.5979 29.8839 12.0485ZM30.3349 14.4107C30.9857 14.5456 31.6137 14.6934 32.2165 14.8531C32.306 15.3405 32.3842 15.8359 32.4507 16.3384C31.8417 16.2299 31.2081 16.1295 30.5521 16.0379C30.4907 15.4868 30.4181 14.944 30.3349 14.4107ZM30.6197 16.6941C31.2818 16.7886 31.9199 16.892 32.5313 17.0037C32.5835 17.4776 32.6254 17.9575 32.6564 18.4428C32.0419 18.3866 31.4015 18.3345 30.7377 18.287C30.7086 17.7495 30.6691 17.2183 30.6197 16.6941ZM30.7673 18.9311C31.4338 18.9793 32.076 19.032 32.6912 19.089C32.7072 19.4532 32.717 19.8202 32.7206 20.1897H30.7961C30.7929 19.767 30.7832 19.3473 30.7673 18.9311ZM30.7961 20.8301H32.7206C32.717 21.1996 32.7072 21.5666 32.6912 21.9308C32.076 21.9878 31.4338 22.0405 30.7673 22.0887C30.7832 21.6725 30.7929 21.2528 30.7961 20.8301ZM30.7377 22.7328C31.4015 22.6853 32.0419 22.6332 32.6564 22.5771C32.6254 23.0623 32.5835 23.5422 32.5313 24.0161C31.9199 24.1278 31.2818 24.2313 30.6197 24.3257C30.6691 23.8015 30.7086 23.2703 30.7377 22.7328ZM30.5521 24.982C31.2081 24.8903 31.8417 24.7899 32.4507 24.6814C32.3842 25.184 32.306 25.6793 32.2165 26.1667C31.6137 26.3264 30.9857 26.4742 30.3349 26.6091C30.4181 26.0758 30.4907 25.533 30.5521 24.982ZM30.2228 27.2856C30.8629 27.1571 31.4826 27.0162 32.0798 26.8639C31.9684 27.3973 31.8435 27.9204 31.7057 28.4321C31.1201 28.627 30.5121 28.8071 29.8839 28.9713C30.0089 28.4219 30.1221 27.8596 30.2228 27.2856ZM29.7156 29.6754C30.3266 29.5226 30.9202 29.3551 31.4945 29.1738C31.3191 29.7578 31.1267 30.3257 30.9183 30.8756C30.3672 31.0836 29.7982 31.2757 29.213 31.4507C29.3947 30.8775 29.5625 30.2851 29.7156 29.6754ZM29.0101 29.8434C28.8456 30.4703 28.6651 31.077 28.4698 31.6614C27.9571 31.799 27.433 31.9237 26.8985 32.0348C27.0511 31.4388 27.1922 30.8203 27.321 30.1816C27.8961 30.081 28.4596 29.9681 29.0101 29.8434ZM26.6432 30.2934C26.508 30.9429 26.3599 31.5696 26.1999 32.1712C25.7115 32.2605 25.2151 32.3386 24.7115 32.4049C24.8202 31.7972 24.9208 31.1648 25.0127 30.5102C25.5649 30.4489 26.1087 30.3764 26.6432 30.2934ZM26.7764 29.6239C26.2281 29.7128 25.6692 29.7903 25.1007 29.8559C25.1787 29.249 25.2494 28.6245 25.3123 27.9843C25.9128 27.9307 26.5032 27.8672 27.082 27.7943C26.9912 28.4204 26.8891 29.0308 26.7764 29.6239ZM27.1724 27.1373C26.5847 27.2134 25.9844 27.2798 25.3728 27.3359C25.4264 26.73 25.473 26.1111 25.5124 25.4807C26.1441 25.4414 26.7643 25.3948 27.3714 25.3413C27.3152 25.9517 27.2487 26.5508 27.1724 27.1373ZM27.4267 24.6935C26.8145 24.7485 26.1884 24.7964 25.5498 24.8367C25.5824 24.2312 25.6083 23.6158 25.6272 22.9917C26.2764 22.971 26.9133 22.9464 27.5361 22.9182C27.5093 23.5188 27.4727 24.111 27.4267 24.6935ZM27.5608 22.2761C26.9358 22.3047 26.2963 22.3295 25.644 22.3505C25.6552 21.8487 25.6619 21.3416 25.6639 20.8301H27.5884C27.5855 21.3167 27.5763 21.7989 27.5608 22.2761ZM27.5884 20.1897H25.6639C25.6619 19.6782 25.6552 19.1712 25.644 18.6693C26.2963 18.6903 26.9358 18.7151 27.5608 18.7437C27.5763 19.2209 27.5855 19.7032 27.5884 20.1897ZM27.5361 18.1016C26.9133 18.0734 26.2764 18.0488 25.6272 18.0281C25.6083 17.404 25.5824 16.7886 25.5498 16.1831C26.1884 16.2234 26.8145 16.2713 27.4267 16.3263C27.4727 16.9089 27.5093 17.501 27.5361 18.1016ZM27.3714 15.6785C26.7643 15.625 26.1441 15.5784 25.5124 15.5392C25.473 14.9087 25.4264 14.2898 25.3728 13.6839C25.9844 13.74 26.5847 13.8064 27.1724 13.8826C27.2487 14.469 27.3152 15.0681 27.3714 15.6785ZM27.082 13.2255C26.5032 13.1526 25.9128 13.0891 25.3123 13.0355C25.2494 12.3953 25.1787 11.7709 25.1007 11.164C25.6692 11.2295 26.2281 11.307 26.7764 11.3959C26.8891 11.989 26.9912 12.5994 27.082 13.2255ZM27.7427 13.3134C27.6559 12.6983 27.5584 12.0972 27.4507 11.5119C28.0427 11.6196 28.6211 11.7406 29.1847 11.8743C29.3186 12.4367 29.4399 13.014 29.5478 13.6047C28.9613 13.4973 28.359 13.3999 27.7427 13.3134ZM27.8308 13.9728C28.4581 14.0634 29.0698 14.1653 29.664 14.2777C29.7531 14.8249 29.8307 15.3827 29.8965 15.9501C29.2883 15.8722 28.6626 15.8016 28.0211 15.7389C27.9674 15.1395 27.9038 14.5504 27.8308 13.9728ZM28.0751 16.3876C28.7231 16.4522 29.3542 16.5247 29.9665 16.6048C30.0194 17.1431 30.0616 17.6894 30.0927 18.2427C29.473 18.202 28.8347 18.1651 28.1796 18.1322C28.154 17.5427 28.119 16.9608 28.0751 16.3876ZM28.2037 18.7746C28.8616 18.8078 29.5023 18.8452 30.1235 18.8865C30.1407 19.317 30.1511 19.7516 30.1545 20.1897H28.23C28.2273 19.7139 28.2184 19.242 28.2037 18.7746ZM28.23 20.8301H30.1545C30.1511 21.2682 30.1407 21.7028 30.1235 22.1333C29.5023 22.1746 28.8616 22.212 28.2037 22.2452C28.2184 21.7778 28.2273 21.3059 28.23 20.8301ZM28.1796 22.8876C28.8347 22.8547 29.473 22.8178 30.0927 22.7771C30.0616 23.3305 30.0194 23.8767 29.9665 24.415C29.3542 24.4951 28.7231 24.5676 28.0751 24.6322C28.119 24.059 28.154 23.4771 28.1796 22.8876ZM28.0211 25.2809C28.6626 25.2182 29.2883 25.1476 29.8965 25.0697C29.8307 25.6371 29.7531 26.1949 29.664 26.7421C29.0698 26.8545 28.4581 26.9564 27.8308 27.0471C27.9038 26.4694 27.9674 25.8803 28.0211 25.2809ZM27.7427 27.7064C28.359 27.6199 28.9613 27.5226 29.5478 27.4151C29.4399 28.0058 29.3186 28.5831 29.1847 29.1455C28.6211 29.2792 28.0427 29.4002 27.4507 29.508C27.5584 28.9226 27.6559 28.3215 27.7427 27.7064ZM38.1713 29.6899C37.0627 31.3107 35.6695 32.7659 34.0519 34.0029C32.8124 35.6172 31.3543 37.0076 29.7302 38.114C33.3336 36.2348 36.2883 33.2861 38.1713 29.6899ZM7.01126 34.0029C8.25074 35.6172 9.7089 37.0076 11.333 38.114C7.72955 36.2348 4.77482 33.2861 2.89188 29.6899C4.00045 31.3107 5.39367 32.7659 7.01126 34.0029ZM34.0519 7.01691C35.6695 8.25389 37.0627 9.7091 38.1713 11.3299C38.1628 11.3136 38.1542 11.2974 38.1457 11.2811C38.1389 11.2684 38.1322 11.2556 38.1254 11.2428C36.2405 7.68612 33.3045 4.76979 29.7302 2.90585C31.3543 4.01218 32.8124 5.40259 34.0519 7.01691ZM7.01125 7.01692C8.25073 5.40259 9.70889 4.01218 11.333 2.90585C7.7587 4.76979 4.82266 7.68612 2.93778 11.2428C2.92241 11.2718 2.9071 11.3008 2.89187 11.3299C4.00044 9.7091 5.39366 8.25389 7.01125 7.01692ZM2.57365 21.0956C2.57147 21.0072 2.56979 20.9187 2.5686 20.8301H1.59099C1.65591 20.8508 1.724 20.8718 1.79532 20.8928C2.02877 20.9617 2.28862 21.0293 2.57365 21.0956ZM5.79841 21.6481C5.78699 21.3769 5.77962 21.1042 5.77639 20.8301H7.70088C7.70422 21.1784 7.71301 21.5247 7.72711 21.8687C7.15597 21.8113 6.6105 21.7502 6.09314 21.6856C5.99379 21.6732 5.89554 21.6607 5.79841 21.6481ZM8.37192 21.9308C8.35599 21.5666 8.34613 21.1996 8.34252 20.8301H10.267C10.2703 21.2528 10.2799 21.6725 10.2958 22.0887C9.6294 22.0405 8.98718 21.9878 8.37192 21.9308ZM10.9396 22.1333C10.9225 21.7028 10.9121 21.2682 10.9086 20.8301H12.8332C12.8359 21.3059 12.8447 21.7778 12.8595 22.2452C12.2015 22.212 11.5609 22.1746 10.9396 22.1333ZM13.5024 22.2761C13.4869 21.7989 13.4776 21.3167 13.4748 20.8301H15.3993C15.4013 21.3416 15.4079 21.8487 15.4191 22.3505C14.7668 22.3295 14.1274 22.3047 13.5024 22.2761ZM13.5271 22.9183C14.1499 22.9464 14.7867 22.971 15.436 22.9917C15.4548 23.6158 15.4807 24.2312 15.5133 24.8367C14.8748 24.7964 14.2486 24.7485 13.6364 24.6935C13.5904 24.111 13.5538 23.5188 13.5271 22.9183ZM13.6918 25.3413C14.2988 25.3948 14.919 25.4414 15.5508 25.4807C15.5901 26.1111 15.6368 26.73 15.6904 27.3359C15.0788 27.2798 14.4784 27.2134 13.8908 27.1373C13.8145 26.5508 13.7479 25.9517 13.6918 25.3413ZM13.9812 27.7943C14.56 27.8672 15.1503 27.9307 15.7509 27.9843C15.8138 28.6245 15.8844 29.249 15.9625 29.8559C15.394 29.7903 14.835 29.7128 14.2868 29.6239C14.1741 29.0308 14.072 28.4204 13.9812 27.7943ZM14.42 30.2934C14.9544 30.3764 15.4983 30.4489 16.0505 30.5102C16.1423 31.1648 16.2429 31.7972 16.3517 32.4049C15.8481 32.3386 15.3517 32.2605 14.8633 32.1712C14.7033 31.5696 14.5552 30.9429 14.42 30.2934ZM15.0535 32.8553C15.5209 32.9358 15.995 33.0063 16.4751 33.0663C16.6068 33.7432 16.7488 34.3863 16.9004 34.9917C16.4948 34.9362 16.0936 34.8716 15.6972 34.7981L15.6881 34.7738C15.4621 34.1723 15.25 33.5315 15.0535 32.8553ZM14.3495 32.7255C14.538 33.4001 14.7418 34.0428 14.9594 34.65C14.5201 34.555 14.0873 34.4492 13.6613 34.3328C13.3709 33.7216 13.0993 33.0725 12.8484 32.3894C13.3397 32.5131 13.8403 32.6253 14.3495 32.7255ZM12.0954 32.1887C12.327 32.8538 12.5778 33.4902 12.8462 34.0948C12.3453 33.9389 11.855 33.7683 11.3762 33.5838C11.0493 32.9786 10.7443 32.3407 10.4636 31.6734C10.9934 31.8597 11.5378 32.0317 12.0954 32.1887ZM9.64841 31.3711C9.89803 32.0075 10.1689 32.6204 10.4595 33.2073C9.84545 32.9392 9.2527 32.6475 8.68355 32.334C8.36937 31.766 8.07708 31.1744 7.80845 30.5616C8.39656 30.8516 9.01073 31.122 9.64841 31.3711ZM9.34547 30.5575C8.67681 30.2774 8.03764 29.973 7.43126 29.6468C7.24633 29.1689 7.07539 28.6796 6.91921 28.1797C7.52496 28.4476 8.16267 28.6979 8.82913 28.929C8.98641 29.4855 9.1588 30.0288 9.34547 30.5575ZM8.62802 28.1775C7.9435 27.9272 7.29309 27.6561 6.68069 27.3663C6.56409 26.9412 6.45799 26.5092 6.36283 26.0708C6.97125 26.288 7.61526 26.4913 8.29125 26.6795C8.39162 27.1877 8.50405 27.6873 8.62802 28.1775ZM6.23884 25.3436L6.21446 25.3345C6.14085 24.9389 6.07606 24.5385 6.02042 24.1338C6.62707 24.285 7.27146 24.4268 7.94975 24.5582C8.00989 25.0373 8.08049 25.5104 8.16115 25.9769C7.48364 25.7808 6.84154 25.5692 6.23884 25.3436ZM6.16917 23.5109C6.09066 23.4913 6.01287 23.4716 5.93581 23.4517C5.89364 23.0707 5.85952 22.6862 5.83371 22.2983C6.43827 22.3756 7.08169 22.4481 7.76003 22.5155C7.7882 22.9785 7.82603 23.4371 7.87318 23.8906C7.27606 23.7719 6.70713 23.6451 6.16917 23.5109ZM8.53186 24.0161C8.47962 23.5422 8.43777 23.0623 8.40671 22.5771C9.02122 22.6333 9.6617 22.6853 10.3255 22.7328C10.3546 23.2703 10.394 23.8015 10.4435 24.3257C9.78141 24.2313 9.14329 24.1278 8.53186 24.0161ZM11.0966 24.415C11.0437 23.8767 11.0015 23.3305 10.9705 22.7771C11.5901 22.8178 12.2285 22.8548 12.8835 22.8876C12.9091 23.4771 12.9441 24.059 12.9881 24.6322C12.3401 24.5676 11.7089 24.4951 11.0966 24.415ZM11.1667 25.0697C11.7748 25.1476 12.4006 25.2182 13.0421 25.2809C13.0958 25.8803 13.1594 26.4694 13.2324 27.0471C12.6051 26.9564 11.9934 26.8545 11.3991 26.7421C11.3101 26.1949 11.2324 25.6371 11.1667 25.0697ZM11.5153 27.4151C12.1019 27.5226 12.7042 27.6199 13.3205 27.7064C13.4072 28.3215 13.5047 28.9226 13.6124 29.508C13.0205 29.4002 12.442 29.2792 11.8785 29.1455C11.7446 28.5831 11.6232 28.0058 11.5153 27.4151ZM12.053 29.8434C12.6035 29.9681 13.167 30.081 13.7422 30.1816C13.871 30.8203 14.0121 31.4388 14.1647 32.0348C13.6302 31.9237 13.1061 31.799 12.5933 31.6614C12.3981 31.077 12.2176 30.4703 12.053 29.8434ZM11.3476 29.6754C11.5006 30.2851 11.6685 30.8775 11.8502 31.4507C11.2649 31.2757 10.6959 31.0836 10.1449 30.8756C9.93647 30.3257 9.74402 29.7578 9.56864 29.1738C10.143 29.3551 10.7366 29.5226 11.3476 29.6754ZM11.1792 28.9713C10.551 28.8071 9.94305 28.627 9.3575 28.4321C9.21967 27.9204 9.09472 27.3973 8.98335 26.8639C9.58052 27.0162 10.2003 27.1571 10.8403 27.2856C10.9411 27.8596 11.0543 28.4219 11.1792 28.9713ZM10.7283 26.6091C10.0775 26.4742 9.44945 26.3264 8.84664 26.1667C8.75719 25.6793 8.67897 25.184 8.61249 24.6814C9.22142 24.7899 9.8551 24.8903 10.511 24.982C10.5725 25.533 10.6451 26.0758 10.7283 26.6091Z" fill="white"/>
<path d="M55.4683 14.7357V10.6834L55.1074 5.98097L56.4154 8.213L61.0158 14.7357H64.9396V0.216702H60.8805V4.76744L61.1736 9.03647L59.9108 6.7611L55.4683 0.216702H51.4091V14.7357H55.4683Z" fill="white"/>
<path d="M71.2363 14.7357V0.216702H67.1771V14.7357H71.2363Z" fill="white"/>
<path d="M78.9445 14.9091C81.9888 14.9091 83.7929 13.2405 83.9959 9.64324L84.8528 14.7357H87.604V6.60941H79.9818V9.64324H83.7929C83.184 10.5967 82.1692 11.2468 80.5907 11.2468C78.4934 11.2468 77.0502 9.92495 77.0502 7.45454C77.0502 5.22252 78.2454 3.77061 80.6132 3.77061C82.4849 3.77061 83.7478 4.76744 84.0635 6.11099L87.4462 3.53224C86.3412 1.38689 83.838 0 80.6132 0C75.5618 0 72.6527 3.09884 72.6527 7.45454C72.6527 12.7204 75.6069 14.9091 78.9445 14.9091Z" fill="white"/>
<path d="M93.633 14.7357V9.20983H99.0452V14.7357H103.104V0.216702H99.0452V5.7426H93.633V0.216702H89.5739V14.7357H93.633Z" fill="white"/>
<path d="M112.284 14.7357V3.68393H116.636V0.216702H103.873V3.68393H108.225V14.7357H112.284Z" fill="white"/>
<path d="M68.76 41V35.6594H57.6182V18.6364H51.4091V41H68.76Z" fill="white"/>
<path d="M76.3478 41V18.6364H70.1387V41H76.3478Z" fill="white"/>
<path d="M85.9821 41V33.2228H95.5716V27.8822H85.9821V23.9769H97.2964V18.6364H79.773V41H85.9821Z" fill="white"/>
<path d="M116.636 41V35.6594H105.15V32.4885H114.912V27.1479H105.15V23.9769H116.636V18.6364H98.9405V41H116.636Z" fill="white"/>
</svg>
